<svg width="21" height="22" viewBox="0 0 21 22" fill="none" xmlns="http://www.w3.org/2000/svg">
<rect width="21" height="22" fill="#1E1E1E"/>
<g id="Real Estate">
<rect width="1920" height="12033" transform="translate(-936 -34)" fill="white"/>
<g id="Top Bar">
<rect id="Rectangle 2" x="-935.715" y="-34" width="1920" height="90" fill="#010F58"/>
<g id="Text">
<g id="Phone">
<g id="Phone_2">
<g id="Ellipse 1">
<circle id="Ellipse 1_2" cx="10.281" cy="11" r="25" fill="#F8FAFA"/>
</g>
<g id="Icon">
<path id="Vector" d="M5.6533 0.800781C5.90596 0.907095 6.18521 0.97354 6.41127 1.12637C6.8501 1.41873 7.06951 1.86391 7.08945 2.39548C7.1227 3.30579 7.18919 4.20945 7.4086 5.09982C7.49503 5.45863 7.60806 5.81744 7.6945 6.17625C7.83413 6.72775 7.70115 7.21945 7.35541 7.66463C6.78361 8.40218 6.22511 9.15302 5.6666 9.90386C5.63336 9.94372 5.63336 10.0434 5.65995 10.0965C6.83015 12.3358 8.48571 14.1165 10.6998 15.3524C10.8926 15.4654 11.0987 15.6647 11.2915 15.6514C11.4843 15.6381 11.6572 15.4189 11.8367 15.2793C12.4684 14.8009 13.0867 14.3159 13.725 13.8441C14.1239 13.5517 14.5893 13.472 15.0681 13.585C15.6066 13.7112 16.1385 13.8906 16.6904 13.977C17.3819 14.0833 18.0866 14.1431 18.7848 14.183C19.6026 14.2295 20.1943 14.6547 20.4071 15.4056C20.4536 15.585 20.4736 15.771 20.4736 15.9571C20.4802 17.1132 20.4603 18.2694 20.4802 19.4255C20.4935 20.3691 19.8818 21.0668 19.0773 21.1797C19.064 21.1797 19.0574 21.193 19.0441 21.1996C18.7116 21.1996 18.3792 21.1996 18.0468 21.1996C17.9803 21.1864 17.9204 21.1797 17.8539 21.1731C17.1159 21.0867 16.3779 21.0402 15.6465 20.9206C13.6053 20.5883 11.6838 19.9106 9.87532 18.9139C7.00967 17.3325 4.70252 15.1597 2.96052 12.3889C1.43129 9.97695 0.520397 7.35234 0.201253 4.5151C0.154711 4.08985 0.121467 3.65795 0.0815735 3.2327C0.0815735 2.90047 0.0815735 2.56824 0.0815735 2.23601C0.194604 1.97687 0.281039 1.69116 0.427313 1.45195C0.679969 1.06656 1.0789 0.90045 1.51772 0.800781C2.89403 0.800781 4.27699 0.800781 5.6533 0.800781Z" fill="#FF5017"/>
</g>
</g>
</g>
</g>
</g>
</g>
</svg>
