<svg width="170" height="170" viewBox="0 0 170 170" fill="none" xmlns="http://www.w3.org/2000/svg">
<g id="Group">
<path id="Vector" opacity="0.45" d="M8.6266 84.9097C8.6266 127.123 42.8535 161.35 85.0667 161.35C127.28 161.35 161.507 127.123 161.507 84.9097C161.507 42.6965 127.28 8.46956 85.0667 8.46956C42.8535 8.46956 8.6266 42.6965 8.6266 84.9097ZM0.992493 84.9097C0.992493 38.4816 38.6221 0.835449 85.0667 0.835449C131.495 0.835449 169.141 38.465 169.141 84.9097C169.141 131.338 131.511 168.984 85.0667 168.984C38.6386 168.984 0.992493 131.354 0.992493 84.9097Z" stroke="#010F58"/>
<path id="Vector_2" opacity="0.432" d="M8.47659 84.9098C8.47659 127.206 42.7702 161.5 85.0668 161.5C127.364 161.5 161.64 127.206 161.657 84.91C161.657 42.6132 127.363 8.31963 85.0668 8.31963C42.7702 8.31963 8.47659 42.6132 8.47659 84.9098ZM1.0925 84.9098C1.0925 38.5318 38.6887 0.935547 85.0668 0.935547C131.428 0.935547 169.024 38.5317 169.041 84.9098C169.041 131.288 131.445 168.884 85.0668 168.884C38.6887 168.884 1.0925 131.288 1.0925 84.9098Z" stroke="#010F58"/>
<path id="Vector_3" opacity="0.414" d="M8.34323 84.9098C8.34323 127.29 42.6868 161.633 85.0667 161.633C127.43 161.633 161.79 127.29 161.79 84.9098C161.79 42.5299 127.447 8.18631 85.0667 8.18631C42.6868 8.18631 8.34323 42.5299 8.34323 84.9098ZM1.20917 84.9098C1.20917 38.5984 38.7554 1.05225 85.0667 1.05225C131.361 1.05225 168.908 38.5984 168.924 84.9098C168.924 131.221 131.378 168.767 85.0667 168.767C38.7554 168.767 1.20917 131.221 1.20917 84.9098Z" stroke="#010F58"/>
<path id="Vector_4" opacity="0.396" d="M8.20991 84.9096C8.20991 127.356 42.6202 161.766 85.0668 161.766C127.513 161.766 161.924 127.356 161.924 84.9096C161.924 42.463 127.513 8.05274 85.0668 8.05274C42.6202 8.05274 8.20991 42.463 8.20991 84.9096ZM1.32587 84.9096C1.32587 38.6649 38.8221 1.1687 85.0668 1.1687C131.311 1.1687 168.791 38.6648 168.808 84.9096C168.808 131.154 131.311 168.651 85.0668 168.651C38.8221 168.651 1.32587 131.154 1.32587 84.9096Z" stroke="#010F58"/>
<path id="Vector_5" opacity="0.378" d="M8.05989 84.9096C8.05989 127.44 42.5368 161.917 85.0668 161.917C127.58 161.917 162.057 127.439 162.074 84.9098C162.074 42.3797 127.597 7.90275 85.0668 7.90275C42.5368 7.90275 8.05989 42.3797 8.05989 84.9096ZM1.44254 84.9096C1.44254 38.7316 38.8887 1.2854 85.0668 1.2854C131.245 1.2854 168.674 38.7315 168.691 84.9096C168.691 131.088 131.245 168.534 85.0668 168.534C38.8887 168.534 1.44254 131.088 1.44254 84.9096Z" stroke="#010F58"/>
<path id="Vector_6" opacity="0.36" d="M7.92653 84.9096C7.92653 127.506 42.4534 162.05 85.0667 162.05C127.663 162.05 162.207 127.523 162.207 84.9096C162.207 42.3131 127.68 7.76943 85.0667 7.76943C42.4702 7.76943 7.92653 42.2963 7.92653 84.9096ZM1.5592 84.9096C1.5592 38.7816 38.9387 1.4021 85.0667 1.4021C131.178 1.4021 168.574 38.7983 168.574 84.9096C168.574 131.038 131.195 168.417 85.0667 168.417C38.9387 168.417 1.5592 131.038 1.5592 84.9096Z" stroke="#010F58"/>
<path id="Vector_7" opacity="0.342" d="M7.77654 84.9097C7.77654 127.606 42.3869 162.2 85.0668 162.2C127.747 162.2 162.357 127.606 162.357 84.9097C162.357 42.213 127.747 7.61944 85.0668 7.61944C42.3702 7.61944 7.77654 42.2131 7.77654 84.9097ZM1.6759 84.9097C1.6759 38.8483 39.0054 1.5188 85.0668 1.5188C131.112 1.5188 168.458 38.8484 168.458 84.9097C168.458 130.971 131.128 168.301 85.0668 168.301C39.0054 168.301 1.6759 130.971 1.6759 84.9097Z" stroke="#010F58"/>
<path id="Vector_8" opacity="0.324" d="M7.64319 84.9097C7.64319 127.673 42.3035 162.333 85.0668 162.333C127.813 162.333 162.49 127.673 162.49 84.9097C162.49 42.1464 127.83 7.48611 85.0668 7.48611C42.3035 7.48611 7.64319 42.1464 7.64319 84.9097ZM1.79257 84.9097C1.79257 38.915 39.0721 1.6355 85.0668 1.6355C131.045 1.6355 168.341 38.9151 168.341 84.9097C168.341 130.904 131.061 168.184 85.0668 168.184C39.0721 168.184 1.79257 130.904 1.79257 84.9097Z" stroke="#010F58"/>
<path id="Vector_9" opacity="0.306" d="M7.50983 84.9097C7.50983 127.74 42.2368 162.467 85.0667 162.467C127.897 162.467 162.624 127.74 162.624 84.9097C162.624 42.0797 127.897 7.35279 85.0667 7.35279C42.2368 7.35279 7.50983 42.0797 7.50983 84.9097ZM1.90924 84.9097C1.90924 38.9817 39.1387 1.7522 85.0667 1.7522C130.995 1.7522 168.224 38.9817 168.224 84.9097C168.224 130.838 130.995 168.067 85.0667 168.067C39.1387 168.067 1.90924 130.838 1.90924 84.9097Z" stroke="#010F58"/>
<path id="Vector_10" opacity="0.288" d="M7.35981 84.9097C7.35981 127.823 42.1534 162.617 85.0667 162.617C127.98 162.617 162.757 127.823 162.774 84.9099C162.774 41.9964 127.98 7.2028 85.0667 7.2028C42.1534 7.2028 7.35981 41.9964 7.35981 84.9097ZM2.02591 84.9097C2.02591 39.0484 39.2054 1.8689 85.0667 1.8689C130.928 1.8689 168.108 39.0484 168.108 84.9097C168.108 130.771 130.928 167.951 85.0667 167.951C39.2054 167.951 2.02591 130.771 2.02591 84.9097Z" stroke="#010F58"/>
<path id="Vector_11" opacity="0.27" d="M7.22646 84.9098C7.22646 127.906 42.0701 162.75 85.0667 162.75C128.047 162.75 162.907 127.907 162.907 84.9098C162.907 41.9132 128.063 7.06954 85.0667 7.06954C42.0701 7.06954 7.22646 41.9132 7.22646 84.9098ZM2.12592 84.9098C2.12592 39.0985 39.2554 1.96899 85.0667 1.96899C130.861 1.96899 167.991 39.0984 168.008 84.9098C168.008 130.721 130.878 167.851 85.0667 167.851C39.2554 167.851 2.12592 130.721 2.12592 84.9098Z" stroke="#010F58"/>
<path id="Vector_12" opacity="0.252" d="M7.09314 84.9096C7.09314 127.973 42.0034 162.883 85.0668 162.883C128.13 162.883 163.04 127.973 163.04 84.9096C163.04 41.8463 128.13 6.93598 85.0668 6.93598C42.0034 6.93598 7.09314 41.8463 7.09314 84.9096ZM2.24261 84.9096C2.24261 39.1649 39.3221 2.08545 85.0668 2.08545C130.795 2.08545 167.891 39.165 167.891 84.9096C167.891 130.654 130.811 167.734 85.0668 167.734C39.3221 167.734 2.24261 130.654 2.24261 84.9096Z" stroke="#010F58"/>
<path id="Vector_13" opacity="0.234" d="M6.94312 84.9096C6.94312 128.056 41.9201 163.033 85.0668 163.033C128.197 163.033 163.174 128.056 163.19 84.9098C163.19 41.763 128.213 6.78598 85.0668 6.78598C41.9201 6.78598 6.94312 41.763 6.94312 84.9096ZM2.35928 84.9096C2.35928 39.2316 39.3888 2.20215 85.0668 2.20215C130.728 2.20215 167.774 39.2317 167.774 84.9096C167.774 130.588 130.745 167.617 85.0668 167.617C39.3888 167.617 2.35928 130.588 2.35928 84.9096Z" stroke="#010F58"/>
<path id="Vector_14" opacity="0.216" d="M6.80976 84.9096C6.80976 128.123 41.8534 163.167 85.0667 163.167C128.28 163.167 163.324 128.123 163.324 84.9096C163.324 41.6963 128.28 6.65266 85.0667 6.65266C41.8534 6.65266 6.80976 41.6963 6.80976 84.9096ZM2.47595 84.9096C2.47595 39.2983 39.4554 2.31885 85.0667 2.31885C130.678 2.31885 167.641 39.2982 167.658 84.9096C167.658 130.521 130.678 167.5 85.0667 167.5C39.4554 167.5 2.47595 130.521 2.47595 84.9096Z" stroke="#010F58"/>
<path id="Vector_15" opacity="0.198" d="M6.65977 84.9097C6.65977 128.223 41.7702 163.317 85.0668 163.317C128.363 163.317 163.474 128.223 163.474 84.9097C163.474 41.5963 128.363 6.50267 85.0668 6.50267C41.7534 6.50267 6.65977 41.5963 6.65977 84.9097ZM2.59265 84.9097C2.59265 39.365 39.5221 2.43555 85.0668 2.43555C130.611 2.43555 167.541 39.365 167.541 84.9097C167.541 130.454 130.611 167.384 85.0668 167.384C39.5221 167.384 2.59265 130.454 2.59265 84.9097Z" stroke="#010F58"/>
<path id="Vector_16" opacity="0.18" d="M6.52642 84.9097C6.52642 128.29 41.6867 163.45 85.0668 163.45C128.43 163.45 163.59 128.29 163.607 84.9099C163.607 41.5297 128.447 6.36935 85.0668 6.36935C41.6867 6.36935 6.52642 41.5297 6.52642 84.9097ZM2.70932 84.9097C2.70932 39.4317 39.5722 2.55225 85.0668 2.55225C130.545 2.55225 167.424 39.4151 167.424 84.9097C167.424 130.388 130.545 167.267 85.0668 167.267C39.5887 167.267 2.70932 130.404 2.70932 84.9097Z" stroke="#010F58"/>
<path id="Vector_17" opacity="0.162" d="M6.39307 84.9097C6.39307 128.356 41.6201 163.583 85.0668 163.583C128.513 163.583 163.74 128.356 163.74 84.9097C163.74 41.463 128.513 6.23602 85.0668 6.23602C41.6201 6.23602 6.39307 41.463 6.39307 84.9097ZM2.82599 84.9097C2.82599 39.4984 39.6389 2.66895 85.0668 2.66895C130.478 2.66895 167.308 39.4818 167.308 84.9097C167.308 130.321 130.495 167.15 85.0668 167.15C39.6554 167.15 2.82599 130.338 2.82599 84.9097Z" stroke="#010F58"/>
<path id="Vector_18" opacity="0.144" d="M6.24304 84.9097C6.24304 128.44 41.5367 163.733 85.0667 163.733C128.58 163.733 163.89 128.44 163.89 84.9097C163.89 41.3797 128.597 6.08603 85.0667 6.08603C41.5367 6.08603 6.24304 41.3797 6.24304 84.9097ZM2.94266 84.9097C2.94266 39.565 39.7055 2.78564 85.0667 2.78564C130.411 2.78564 167.191 39.5485 167.191 84.9097C167.191 130.254 130.428 167.034 85.0667 167.034C39.7221 167.034 2.94266 130.271 2.94266 84.9097Z" stroke="#010F58"/>
<path id="Vector_19" opacity="0.126" d="M6.10969 84.9098C6.10969 128.523 41.4534 163.867 85.0667 163.867C128.663 163.867 164.024 128.523 164.024 84.9098C164.024 41.2965 128.68 5.95278 85.0667 5.95278C41.4534 5.95278 6.10969 41.2965 6.10969 84.9098ZM3.04266 84.9098C3.04266 39.5986 39.7721 2.88574 85.0667 2.88574C130.361 2.88574 167.074 39.6151 167.091 84.9098C167.091 130.221 130.361 166.934 85.0667 166.934C39.7555 166.934 3.04266 130.205 3.04266 84.9098Z" stroke="#010F58"/>
<path id="Vector_20" opacity="0.108" d="M5.97637 84.9096C5.97637 128.59 41.3867 164 85.0668 164C128.747 164 164.157 128.59 164.157 84.9096C164.157 41.2296 128.747 5.81921 85.0668 5.81921C41.3867 5.81921 5.97637 41.2296 5.97637 84.9096ZM3.15936 84.9096C3.15936 39.6651 39.8388 3.0022 85.0668 3.0022C130.295 3.0022 166.958 39.6815 166.974 84.9096C166.974 130.154 130.295 166.817 85.0668 166.817C39.8222 166.817 3.15936 130.138 3.15936 84.9096Z" stroke="#010F58"/>
<path id="Vector_21" opacity="0.09" d="M5.82635 84.9096C5.82635 128.673 41.3034 164.15 85.0668 164.15C128.813 164.15 164.307 128.673 164.307 84.9096C164.307 41.1462 128.83 5.66922 85.0668 5.66922C41.3034 5.66922 5.82635 41.1462 5.82635 84.9096ZM3.27603 84.9096C3.27603 39.7317 39.8888 3.1189 85.0668 3.1189C130.228 3.1189 166.841 39.7316 166.857 84.9096C166.857 130.088 130.245 166.7 85.0668 166.7C39.8888 166.7 3.27603 130.088 3.27603 84.9096Z" stroke="#010F58"/>
<path id="Vector_22" opacity="0.072" d="M5.693 84.9096C5.693 128.74 41.2367 164.283 85.0667 164.283C128.897 164.283 164.441 128.74 164.441 84.9096C164.441 41.0796 128.897 5.53589 85.0667 5.53589C41.22 5.53589 5.693 41.0797 5.693 84.9096ZM3.3927 84.9096C3.3927 39.7984 39.9555 3.2356 85.0667 3.2356C130.161 3.2356 166.724 39.7983 166.741 84.9096C166.741 130.021 130.178 166.584 85.0667 166.584C39.9555 166.584 3.3927 130.021 3.3927 84.9096Z" stroke="#010F58"/>
<path id="Vector_23" opacity="0.054" d="M5.55967 84.9097C5.55967 128.823 41.1534 164.417 85.0668 164.417C128.98 164.417 164.574 128.823 164.574 84.9097C164.574 40.9963 128.98 5.40257 85.0668 5.40257C41.1534 5.40257 5.55967 40.9963 5.55967 84.9097ZM3.5094 84.9097C3.5094 39.8651 40.0222 3.35229 85.0668 3.35229C130.095 3.35229 166.624 39.8651 166.624 84.9097C166.624 129.954 130.111 166.467 85.0668 166.467C40.0222 166.467 3.5094 129.954 3.5094 84.9097Z" stroke="#010F58"/>
<path id="Vector_24" opacity="0.036" d="M5.40965 84.9097C5.40965 128.906 41.07 164.567 85.0668 164.567C129.047 164.567 164.707 128.906 164.724 84.9099C164.724 40.913 129.063 5.25258 85.0668 5.25258C41.07 5.25258 5.40965 40.913 5.40965 84.9097ZM3.62607 84.9097C3.62607 39.9318 40.0888 3.46899 85.0668 3.46899C130.045 3.46899 166.507 39.9318 166.507 84.9097C166.507 129.888 130.045 166.35 85.0668 166.35C40.0888 166.35 3.62607 129.888 3.62607 84.9097Z" stroke="#010F58"/>
<path id="Vector_25" opacity="0.018" d="M5.2763 84.9097C5.2763 128.973 41.0033 164.7 85.0667 164.7C129.13 164.7 164.857 128.973 164.857 84.9097C164.857 40.8463 129.13 5.11926 85.0667 5.11926C41.0033 5.11926 5.2763 40.8463 5.2763 84.9097ZM3.74274 84.9097C3.74274 39.9985 40.1555 3.58569 85.0667 3.58569C129.978 3.58569 166.391 39.9985 166.391 84.9097C166.391 129.821 129.978 166.234 85.0667 166.234C40.1555 166.234 3.74274 129.821 3.74274 84.9097Z" stroke="#010F58"/>
</g>
</svg>
