<svg width="210" height="210" viewBox="0 0 210 210" fill="none" xmlns="http://www.w3.org/2000/svg">
<g id="Group">
<path id="Vector" opacity="0.52" d="M195.597 53.4727L194.847 52.1736L189.347 55.3489L190.097 56.648L195.597 53.4727Z" fill="#FF5017"/>
<path id="Vector_2" opacity="0.42" d="M189.733 44.2846L188.851 43.071L183.714 46.8041L184.596 48.0177L189.733 44.2846Z" fill="#FF5017"/>
<path id="Vector_3" opacity="0.32" d="M182.929 35.758L181.925 34.6431L177.206 38.8925L178.21 40.0074L182.929 35.758Z" fill="#FF5017"/>
<path id="Vector_4" opacity="0.22" d="M175.265 28.0049L174.15 27.0012L169.901 31.7203L171.015 32.7241L175.265 28.0049Z" fill="#FF5017"/>
<path id="Vector_5" opacity="0.11" d="M166.834 21.0682L165.621 20.1865L161.888 25.3239L163.102 26.2056L166.834 21.0682Z" fill="#FF5017"/>
<path id="Vector_6" opacity="0.02" d="M157.739 15.0676L156.44 14.3176L153.265 19.8179L154.564 20.5678L157.739 15.0676Z" fill="#FF5017"/>
<path id="Vector_7" opacity="0.02" d="M53.5763 14.3161L52.2772 15.0662L55.4525 20.5659L56.7516 19.8159L53.5763 14.3161Z" fill="#FF5017"/>
<path id="Vector_8" opacity="0.11" d="M44.3768 20.1845L43.1631 21.0662L46.8957 26.2038L48.1093 25.3221L44.3768 20.1845Z" fill="#FF5017"/>
<path id="Vector_9" opacity="0.22" d="M35.8615 26.9883L34.7468 27.9922L38.9965 32.711L40.1112 31.7072L35.8615 26.9883Z" fill="#FF5017"/>
<path id="Vector_10" opacity="0.32" d="M28.0887 34.6454L27.0849 35.7603L31.8043 40.0099L32.8082 38.8951L28.0887 34.6454Z" fill="#FF5017"/>
<path id="Vector_11" opacity="0.42" d="M21.1603 43.073L20.2785 44.2866L25.4162 48.0198L26.298 46.8062L21.1603 43.073Z" fill="#FF5017"/>
<path id="Vector_12" opacity="0.52" d="M15.1589 52.1828L14.4089 53.4819L19.9086 56.6571L20.6586 55.3579L15.1589 52.1828Z" fill="#FF5017"/>
<path id="Vector_13" opacity="0.52" d="M10.131 61.8493L9.5209 63.2197L15.3225 65.8026L15.9326 64.4321L10.131 61.8493Z" fill="#FF5017"/>
<path id="Vector_14" opacity="0.52" d="M6.14212 72.0021L5.67859 73.4287L11.718 75.391L12.1816 73.9644L6.14212 72.0021Z" fill="#FF5017"/>
<path id="Vector_15" opacity="0.52" d="M3.24988 82.5198L2.93799 83.9871L9.14945 85.3074L9.46134 83.8401L3.24988 82.5198Z" fill="#FF5017"/>
<path id="Vector_16" opacity="0.52" d="M1.47392 93.2864L1.31708 94.7783L7.63281 95.4423L7.78965 93.9504L1.47392 93.2864Z" fill="#FF5017"/>
<path id="Vector_17" opacity="0.52" d="M0.841946 104.17L0.841797 105.67L7.19254 105.671L7.19269 104.17L0.841946 104.17Z" fill="#FF5017"/>
<path id="Vector_18" opacity="0.52" d="M1.30027 115.064L1.45709 116.556L7.77252 115.892L7.6157 114.4L1.30027 115.064Z" fill="#FF5017"/>
<path id="Vector_19" opacity="0.52" d="M2.93462 125.829L3.24649 127.296L9.45792 125.976L9.14604 124.508L2.93462 125.829Z" fill="#FF5017"/>
<path id="Vector_20" opacity="0.52" d="M5.70404 136.386L6.16766 137.813L12.2077 135.85L11.744 134.424L5.70404 136.386Z" fill="#FF5017"/>
<path id="Vector_21" opacity="0.52" d="M9.52887 146.603L10.1389 147.973L15.9406 145.391L15.3305 144.02L9.52887 146.603Z" fill="#FF5017"/>
<path id="Vector_22" opacity="0.52" d="M14.4032 156.353L15.1533 157.652L20.653 154.477L19.9029 153.177L14.4032 156.353Z" fill="#FF5017"/>
<path id="Vector_23" opacity="0.52" d="M20.2613 165.53L21.1432 166.743L26.2805 163.01L25.3987 161.797L20.2613 165.53Z" fill="#FF5017"/>
<path id="Vector_24" opacity="0.52" d="M27.0835 174.048L28.0873 175.163L32.8071 170.913L31.8032 169.798L27.0835 174.048Z" fill="#FF5017"/>
<path id="Vector_25" opacity="0.52" d="M34.7203 181.825L35.8352 182.828L40.084 178.109L38.9691 177.105L34.7203 181.825Z" fill="#FF5017"/>
<path id="Vector_26" opacity="0.52" d="M43.1554 188.768L44.369 189.65L48.1016 184.512L46.888 183.63L43.1554 188.768Z" fill="#FF5017"/>
<path id="Vector_27" opacity="0.52" d="M52.2558 194.742L53.5551 195.492L56.7299 189.992L55.4306 189.242L52.2558 194.742Z" fill="#FF5017"/>
<path id="Vector_28" opacity="0.52" d="M61.9334 199.779L63.3038 200.39L65.8867 194.588L64.5163 193.978L61.9334 199.779Z" fill="#FF5017"/>
<path id="Vector_29" opacity="0.52" d="M72.1031 203.764L73.5297 204.227L75.492 198.188L74.0654 197.724L72.1031 203.764Z" fill="#FF5017"/>
<path id="Vector_30" opacity="0.52" d="M82.6155 206.676L84.0828 206.988L85.4031 200.776L83.9358 200.464L82.6155 206.676Z" fill="#FF5017"/>
<path id="Vector_31" opacity="0.52" d="M93.3516 208.451L94.8435 208.608L95.5074 202.292L94.0155 202.135L93.3516 208.451Z" fill="#FF5017"/>
<path id="Vector_32" opacity="0.52" d="M104.253 209.084L105.753 209.084L105.753 202.733L104.253 202.733L104.253 209.084Z" fill="#FF5017"/>
<path id="Vector_33" opacity="0.52" d="M115.136 208.598L116.628 208.441L115.963 202.125L114.471 202.282L115.136 208.598Z" fill="#FF5017"/>
<path id="Vector_34" opacity="0.52" d="M125.923 206.967L127.39 206.655L126.07 200.443L124.602 200.755L125.923 206.967Z" fill="#FF5017"/>
<path id="Vector_35" opacity="0.52" d="M136.492 204.205L137.918 203.741L135.957 197.701L134.53 198.165L136.492 204.205Z" fill="#FF5017"/>
<path id="Vector_36" opacity="0.52" d="M146.687 200.4L148.058 199.79L145.475 193.988L144.104 194.599L146.687 200.4Z" fill="#FF5017"/>
<path id="Vector_37" opacity="0.52" d="M156.434 195.504L157.733 194.754L154.558 189.254L153.258 190.004L156.434 195.504Z" fill="#FF5017"/>
<path id="Vector_38" opacity="0.52" d="M165.628 189.632L166.842 188.75L163.109 183.612L161.896 184.494L165.628 189.632Z" fill="#FF5017"/>
<path id="Vector_39" opacity="0.52" d="M174.163 182.832L175.277 181.828L171.028 177.109L169.913 178.113L174.163 182.832Z" fill="#FF5017"/>
<path id="Vector_40" opacity="0.52" d="M181.915 175.181L182.918 174.066L178.199 169.816L177.195 170.931L181.915 175.181Z" fill="#FF5017"/>
<path id="Vector_41" opacity="0.52" d="M188.834 166.758L189.715 165.545L184.578 161.811L183.696 163.025L188.834 166.758Z" fill="#FF5017"/>
<path id="Vector_42" opacity="0.52" d="M194.845 157.646L195.595 156.347L190.096 153.172L189.346 154.471L194.845 157.646Z" fill="#FF5017"/>
<path id="Vector_43" opacity="0.52" d="M199.857 147.973L200.468 146.603L194.666 144.02L194.056 145.39L199.857 147.973Z" fill="#FF5017"/>
<path id="Vector_44" opacity="0.52" d="M203.85 137.803L204.314 136.376L198.274 134.414L197.811 135.841L203.85 137.803Z" fill="#FF5017"/>
<path id="Vector_45" opacity="0.52" d="M206.752 127.314L207.064 125.847L200.852 124.527L200.54 125.994L206.752 127.314Z" fill="#FF5017"/>
<path id="Vector_46" opacity="0.52" d="M208.528 116.548L208.685 115.057L202.369 114.393L202.213 115.884L208.528 116.548Z" fill="#FF5017"/>
<path id="Vector_47" opacity="0.52" d="M209.169 105.668L209.169 104.168L202.819 104.167L202.819 105.667L209.169 105.668Z" fill="#FF5017"/>
<path id="Vector_48" opacity="0.52" d="M208.685 94.7648L208.529 93.2729L202.213 93.9368L202.37 95.4287L208.685 94.7648Z" fill="#FF5017"/>
<path id="Vector_49" opacity="0.52" d="M207.045 83.9922L206.733 82.5249L200.521 83.8446L200.833 85.312L207.045 83.9922Z" fill="#FF5017"/>
<path id="Vector_50" opacity="0.52" d="M204.32 73.4385L203.856 72.0117L197.816 73.9744L198.28 75.4012L204.32 73.4385Z" fill="#FF5017"/>
<path id="Vector_51" opacity="0.52" d="M200.478 63.2328L199.868 61.8623L194.066 64.4449L194.676 65.8153L200.478 63.2328Z" fill="#FF5017"/>
</g>
</svg>
